<?xml version="1.0" encoding="utf-8"?>
<!-- Generator: Adobe Illustrator 22.0.1, SVG Export Plug-In . SVG Version: 6.00 Build 0)  -->
<svg version="1.1" id="Layer_1" xmlns="http://www.w3.org/2000/svg" xmlns:xlink="http://www.w3.org/1999/xlink" x="0px" y="0px"
	 viewBox="0 0 64 64" style="enable-background:new 0 0 64 64;" xml:space="preserve">
<style type="text/css">
	.st0{fill:#FFFFFF;}
</style>
<g>
	<g>
		<g>
			<g>
				<path class="st0" d="M60,16H4c-2.2,0-4-1.8-4-4l0,0c0-2.2,1.8-4,4-4h56c2.2,0,4,1.8,4,4l0,0C64,14.2,62.2,16,60,16z"/>
			</g>
		</g>
	</g>
	<g>
		<g>
			<g>
				<path class="st0" d="M60,56H4c-2.2,0-4-1.8-4-4l0,0c0-2.2,1.8-4,4-4h56c2.2,0,4,1.8,4,4l0,0C64,54.2,62.2,56,60,56z"/>
			</g>
		</g>
	</g>
	<g>
		<g>
			<g>
				<path class="st0" d="M60,36H4c-2.2,0-4-1.8-4-4l0,0c0-2.2,1.8-4,4-4h56c2.2,0,4,1.8,4,4l0,0C64,34.2,62.2,36,60,36z"/>
			</g>
		</g>
	</g>
</g>
</svg>
